<svg id="Layer_1" data-name="Layer 1" xmlns="http://www.w3.org/2000/svg" viewBox="0 0 127.78 59.53"><defs><style>.cls-1{fill:#bcbec0;}</style></defs><title>Website colour option</title><g id="_Group_" data-name="&lt;Group&gt;"><path class="cls-1" d="M58,38.12V27.77h1.89v4.71h0l3.91-4.71h2.35L61.85,32.9l4.67,5.22H64.09l-4.18-4.67h0v4.67Z"/><path class="cls-1" d="M75.64,30.88a2.86,2.86,0,0,1-.6,1.84,3.54,3.54,0,0,1-1.85,1.12v0l3.08,4.25H74l-2.81-4h-1.3v4H68V27.77h3.15a11.24,11.24,0,0,1,1.45.09,5.41,5.41,0,0,1,1.15.27,3,3,0,0,1,1.41,1A2.87,2.87,0,0,1,75.64,30.88Zm-4.83,1.65a9,9,0,0,0,1.1-.06,3.41,3.41,0,0,0,.76-.17,1.47,1.47,0,0,0,.79-.59,1.67,1.67,0,0,0,.22-.86,1.52,1.52,0,0,0-.17-.74,1.19,1.19,0,0,0-.59-.51,2.45,2.45,0,0,0-.68-.18,7.34,7.34,0,0,0-1-.06H69.88v3.17Z"/><path class="cls-1" d="M83.85,35.48H80l-1,2.64h-2L81,27.77h1.73l4.11,10.35h-2Zm-2-5.22q-.54,1.62-1,2.71l-.35.92h2.67L82.89,33q-.42-1.1-1-2.71Z"/><path class="cls-1" d="M90.23,38.12H88.34V27.77h6.59v1.58H90.23V32h4v1.58h-4Z"/><path class="cls-1" d="M100.82,38.12H98.93V29.35H95.59V27.77h8.57v1.58h-3.33Z"/><path class="cls-1" d="M59.87,51.06H58V40.72h6.59V42.3H59.87V45h4v1.58h-4Z"/><path class="cls-1" d="M70.52,51.26a6.19,6.19,0,0,1-1.46-.16,4.09,4.09,0,0,1-1.14-.46,3.19,3.19,0,0,1-.84-.73,3.56,3.56,0,0,1-.56-1,4.19,4.19,0,0,1-.24-1,8.56,8.56,0,0,1-.07-1.17V40.72h1.89v5.92a4.51,4.51,0,0,0,.26,1.72,2,2,0,0,0,.86,1,3,3,0,0,0,2.66,0,2,2,0,0,0,.86-1A4.51,4.51,0,0,0,73,46.64V40.72h1.89v6.09A8.56,8.56,0,0,1,74.81,48a4.19,4.19,0,0,1-.24,1,3.51,3.51,0,0,1-.56,1,3.19,3.19,0,0,1-.86.73A4.25,4.25,0,0,1,72,51.1,6.29,6.29,0,0,1,70.52,51.26Z"/><path class="cls-1" d="M85,43.83a2.86,2.86,0,0,1-.6,1.84,3.54,3.54,0,0,1-1.85,1.12v0l3.08,4.25H83.33l-2.81-4h-1.3v4H77.32V40.72h3.15a11.24,11.24,0,0,1,1.45.09,5.41,5.41,0,0,1,1.15.27,3,3,0,0,1,1.41,1A2.87,2.87,0,0,1,85,43.83Zm-4.83,1.65a9,9,0,0,0,1.1-.06,3.41,3.41,0,0,0,.76-.17,1.47,1.47,0,0,0,.79-.59,1.67,1.67,0,0,0,.22-.86,1.52,1.52,0,0,0-.17-.74,1.19,1.19,0,0,0-.59-.51,2.45,2.45,0,0,0-.68-.18,7.34,7.34,0,0,0-1-.06H79.21v3.17Z"/><path class="cls-1" d="M92.65,45.53q1.11,1.59,1.81,2.82h0q-.09-2-.09-2.94V40.72h1.89V51.06h-2L91,46.3q-.89-1.24-1.84-2.87h0q.09,1.9.09,2.95v4.69H87.26V40.72h2Z"/><path class="cls-1" d="M98.79,51.06V40.72h1.89V51.06Z"/><path class="cls-1" d="M108.24,48.09a1,1,0,0,0-.19-.64,1.43,1.43,0,0,0-.53-.4,3.89,3.89,0,0,0-.75-.25l-.87-.19a11.45,11.45,0,0,1-1.15-.31,3.22,3.22,0,0,1-1-.5,2.31,2.31,0,0,1-.67-.82,2.75,2.75,0,0,1-.25-1.24,3.32,3.32,0,0,1,.29-1.43,2.82,2.82,0,0,1,.78-1,3.31,3.31,0,0,1,1.15-.6,5.19,5.19,0,0,1,1.49-.2,8.77,8.77,0,0,1,1.66.16,7.3,7.3,0,0,1,1.44.42v1.62a8.75,8.75,0,0,0-1.54-.46,7.3,7.3,0,0,0-1.39-.14,2.57,2.57,0,0,0-1.44.34,1.15,1.15,0,0,0-.51,1,1.17,1.17,0,0,0,.17.65,1.33,1.33,0,0,0,.45.42,2.75,2.75,0,0,0,.66.27l.79.19q.66.14,1.26.32a3.75,3.75,0,0,1,1.06.51,2.32,2.32,0,0,1,.73.85,2.89,2.89,0,0,1,.27,1.33,3.17,3.17,0,0,1-.31,1.45,2.71,2.71,0,0,1-.88,1,4,4,0,0,1-1.38.59,7.68,7.68,0,0,1-1.78.19,8.32,8.32,0,0,1-1.66-.17,4.75,4.75,0,0,1-1.36-.47V49a7.66,7.66,0,0,0,1.49.48,7.37,7.37,0,0,0,1.5.15,5.28,5.28,0,0,0,.88-.07,2.63,2.63,0,0,0,.78-.25,1.47,1.47,0,0,0,.55-.48A1.3,1.3,0,0,0,108.24,48.09Z"/><path class="cls-1" d="M114.19,45H119V40.72h1.89V51.06H119v-4.5h-4.79v4.5H112.3V40.72h1.89Z"/><g id="_Group_2" data-name="&lt;Group&gt;"><g id="_Group_3" data-name="&lt;Group&gt;"><path id="_Compound_Path_" data-name="&lt;Compound Path&gt;" class="cls-1" d="M50.41,34.54v15a1.89,1.89,0,0,1-1.89,1.89H14.92A1.89,1.89,0,0,1,13,49.55v-.3a1.89,1.89,0,0,1,1.89-1.89H29.69v.11h3.78v-.11H44.73a1.89,1.89,0,0,0,1.89-1.89V34.54a1.89,1.89,0,0,1,1.89-1.89h0A1.89,1.89,0,0,1,50.41,34.54Z"/></g><path id="_Path_" data-name="&lt;Path&gt;" class="cls-1" d="M36.37,12.18h12a2,2,0,0,0,2-2h0a2,2,0,0,0-2-2H15.07a2,2,0,0,0-2,2h0a2,2,0,0,0,2,2h21.3Z"/><path id="_Path_2" data-name="&lt;Path&gt;" class="cls-1" d="M30.46,13.79,13.57,26a1.75,1.75,0,0,0,1.26,3.12h0a2.07,2.07,0,0,0,1.24-.4l15.62-11,0,0,0,0,15.62,11a2.07,2.07,0,0,0,1.24.4h0A1.75,1.75,0,0,0,49.87,26L33,13.79A2.1,2.1,0,0,0,30.46,13.79Z"/><rect id="_Rectangle_" data-name="&lt;Rectangle&gt;" class="cls-1" x="29.74" y="36.41" width="3.95" height="12.69" rx="1.72" ry="1.72"/><path id="_Path_3" data-name="&lt;Path&gt;" class="cls-1" d="M35.38,26.94a1.5,1.5,0,0,0-1.58-.88c-1.41,0-2.83,0-4.24,0A1.85,1.85,0,0,0,28,27.15c-.53,1.38-1,2.77-1.55,4.15l-1,2.65a1.07,1.07,0,0,0,1,1.45H37a1.08,1.08,0,0,0,1-1.45C37.11,31.57,36.25,29.25,35.38,26.94Z"/></g></g></svg>