<svg id="Layer_1" data-name="Layer 1" xmlns="http://www.w3.org/2000/svg" viewBox="0 0 179.43 38.93"><defs><style>.cls-1{fill:#fff;}.cls-2{fill:#55b93e;}</style></defs><title>img</title><path class="cls-1" d="M92.1,13a2.36,2.36,0,0,1-.14.79L85.39,33a2.91,2.91,0,0,1-2.68,1.94A3,3,0,0,1,80,33l-4.9-15.28L70.18,33a3,3,0,0,1-2.73,2A2.91,2.91,0,0,1,64.77,33L58.21,13.8a2.36,2.36,0,0,1-.14-.79,2.07,2.07,0,0,1,2.08-2.08A1.93,1.93,0,0,1,62,12.18L67.45,30,72.82,12.6a2.37,2.37,0,0,1,4.53,0L82.71,30l5.41-17.77A1.92,1.92,0,0,1,90,10.94,2.07,2.07,0,0,1,92.1,13Z"/><path class="cls-1" d="M38.61,21.06V33.48a2,2,0,0,1-2,1.94,1.93,1.93,0,0,1-1.94-1.94V21.84c0-3.62-1.12-5.44-4.41-5.44s-5.05,2.2-6.22,4.14V33.48a2,2,0,0,1-2,1.94,1.93,1.93,0,0,1-1.94-1.94V21.84c0-3.62-1.12-5.44-4.41-5.44s-5.05,2.2-6.22,4.14V33.48a2,2,0,0,1-2,1.94,1.93,1.93,0,0,1-1.94-1.94V15A2,2,0,0,1,7.5,13a2,2,0,0,1,2,2v1.77a8.49,8.49,0,0,1,7.34-4,7,7,0,0,1,6.61,4.44,8.78,8.78,0,0,1,7.95-4.44C36.49,12.78,38.61,17.22,38.61,21.06Z"/><path class="cls-1" d="M56.54,33.35a1.61,1.61,0,0,1-1,1.51,8.43,8.43,0,0,1-3.59.78c-2,0-6.31-.35-6.31-5.69V16.58H42.58a.79.79,0,0,1-.82-.82,1,1,0,0,1,.39-.73L48,9.29a1.09,1.09,0,0,1,.73-.39.83.83,0,0,1,.82.86v3.45h4.88a1.68,1.68,0,1,1,0,3.36H49.58v13c0,2.54,1.73,2.59,2.81,2.59A23.06,23.06,0,0,0,55,31.8,1.57,1.57,0,0,1,56.54,33.35Z"/><path class="cls-1" d="M104.83,5.49v28a2,2,0,0,1-3.93,0v-28a2,2,0,1,1,3.93,0Z"/><path class="cls-1" d="M127.67,21.06V33.27a2,2,0,0,1-2,1.94,1.93,1.93,0,0,1-1.94-1.94V32.15a10.82,10.82,0,0,1-8.12,3.28c-3.76,0-7-2.42-7-6.47s3.2-7,9.94-7h5.23v-.34c0-3.84-1.9-5.35-5.79-5.35a17.31,17.31,0,0,0-5.75,1,2.53,2.53,0,0,1-.56.09,1.6,1.6,0,0,1-1.6-1.64,1.71,1.71,0,0,1,1.12-1.64,18.48,18.48,0,0,1,7.47-1.55C125,12.56,127.67,16.83,127.67,21.06Zm-3.93,7.68V25.11H119c-4.06,0-6.52.95-6.52,3.41,0,1.85,1.08,3.45,4.58,3.45A9.3,9.3,0,0,0,123.74,28.74Z"/><path class="cls-1" d="M153.65,24c0,7.33-5.23,11.43-10.45,11.43a9.85,9.85,0,0,1-7.39-3.28v1.12a2,2,0,0,1-3.93,0v-28a2,2,0,1,1,3.93,0V15.84a9.85,9.85,0,0,1,7.39-3.28C148.42,12.56,153.65,16.66,153.65,24Zm-3.93,0c0-5.09-3-7.76-7.08-7.76a9.22,9.22,0,0,0-6.83,3.24v9.06a9.22,9.22,0,0,0,6.83,3.24C146.74,31.76,149.72,29.08,149.72,24Z"/><path class="cls-1" d="M173.87,29c0,3.49-2.81,6.38-8.34,6.38a15.82,15.82,0,0,1-7.86-1.94,1.73,1.73,0,0,1,1-3.15,1.82,1.82,0,0,1,.78.17,13.63,13.63,0,0,0,5.88,1.29c3.33,0,4.79-1.12,4.79-3.06,0-3.71-13-1.51-13-9.36,0-3.88,2.81-6.82,8.42-6.82a18.28,18.28,0,0,1,6.26,1.08A1.76,1.76,0,0,1,173,15.28,1.73,1.73,0,0,1,171.32,17a2.19,2.19,0,0,1-.56-.09,16.36,16.36,0,0,0-4.92-.78c-3.2,0-5,1.29-5,3C160.86,23.65,173.87,20.59,173.87,29Z"/><polygon class="cls-2" points="75.08 25.49 72.75 34.93 77.41 34.94 75.08 25.49"/></svg>