<svg id="Layer_1" data-name="Layer 1" xmlns="http://www.w3.org/2000/svg" viewBox="0 0 161.03 161.03"><defs><style>.cls-1{fill:#fff;}.cls-2{fill:#234ad8;}</style></defs><title>imh</title><polyline class="cls-1" points="65.89 105.83 23.18 105.83 23.18 54.02 109.07 54.02 109.07 88.68"/><polygon class="cls-2" points="65.89 106.83 22.18 106.83 22.18 53.02 110.07 53.02 110.07 88.68 108.07 88.68 108.07 55.02 24.18 55.02 24.18 104.83 65.89 104.83 65.89 106.83"/><rect class="cls-2" x="72.78" y="68.48" width="36.53" height="2"/><rect class="cls-2" x="23.22" y="68.48" width="37.43" height="2"/><rect class="cls-1" x="59.92" y="61.97" width="12.41" height="14.59"/><path class="cls-2" d="M73.33,77.56H58.92V61H73.33Zm-12.41-2H71.33V63H60.92Z"/><path class="cls-1" d="M54.07,53.48q0-.39,0-.78A12.08,12.08,0,0,1,66.13,40.63c6.67,0,12.37,6.06,12.37,12.73"/><path class="cls-2" d="M53.08,53.55q0-.42,0-.84A13.09,13.09,0,0,1,66.13,39.63c7.12,0,13.37,6.41,13.37,13.73h-2c0-6.25-5.31-11.73-11.37-11.73A11.09,11.09,0,0,0,55.05,52.7c0,.24,0,.48,0,.72Z"/><path class="cls-2" d="M117.85,131.26l-1-1.74c4.31-2.44,15.22-10,14-15.67a4.18,4.18,0,0,0-2.16-3.11c-2.5-1.25-6.6.13-8,.76l-.84-1.81c.24-.11,5.83-2.66,9.7-.74a6.13,6.13,0,0,1,3.23,4.48C134.6,121.68,118.53,130.88,117.85,131.26Z"/><path class="cls-2" d="M109.95,139.44H83.57l-.17-.07c-9.59-3.66-11.74-17.55-11.83-18.13V104.67h50v16.54c-1.59,13.69-11,18-11.37,18.15Zm-26-2h25.57c1.28-.64,8.64-4.79,10-16.41V106.67h-46V121C73.72,122,75.9,134.22,83.94,137.44Z"/><rect class="cls-2" x="84.31" y="95.21" width="2" height="6.86"/><rect class="cls-2" x="96.77" y="95.21" width="2" height="6.86"/><rect class="cls-2" x="109.22" y="95.21" width="2" height="6.86"/><rect class="cls-2" x="96.89" y="95.97" width="2" height="34.83" transform="matrix(0, -1, 1, 0, -15.77, 210.95)"/><rect class="cls-2" x="75.01" y="142.78" width="45.44" height="2"/><circle class="cls-2" cx="113.91" cy="44.12" r="23.94"/><polygon class="cls-1" points="129.9 48.28 111.82 48.28 111.82 29.32 113.82 29.32 113.82 46.28 129.9 46.28 129.9 48.28"/><circle class="cls-1" cx="113.06" cy="46.54" r="3.84"/></svg>